<svg width="100" height="100" viewBox="0 0 100 100" fill="none" xmlns="http://www.w3.org/2000/svg">
<path d="M29.7939 68.6388L15.3333 81.9768C17.1751 83.9745 19.2047 85.8262 21.416 87.5071L33.3426 71.8555C32.0561 70.8772 30.8665 69.8026 29.7939 68.6388Z" fill="#01BBFA"/>
<path d="M25.5805 37.3904C32.5444 23.9043 49.1243 18.617 62.6096 25.5805C76.0966 32.5448 81.3829 49.1243 74.4195 62.6096C67.4552 76.0966 50.8765 81.3834 37.3904 74.4195L28.3664 91.8952C51.5047 103.843 79.9467 94.7727 91.8952 71.6336C103.843 48.4962 94.7709 20.0524 71.6336 8.10482C48.4962 -3.84271 20.0523 5.22905 8.10481 28.3664L25.5805 37.3904V37.3904Z" fill="url(#paint0_radial)"/>
<path d="M24.6478 60.5996L6.4989 68.1862C7.55464 70.7122 8.82753 73.1511 10.3118 75.4684L26.8722 64.8421C26.0078 63.4908 25.262 62.0714 24.6478 60.5996Z" fill="#FDE342"/>
<path d="M23.7642 41.8232L4.97755 35.9679C4.14784 38.6187 3.56545 41.3049 3.21957 43.9974L22.7328 46.5014C22.9352 44.9324 23.2825 43.3684 23.7642 41.8232Z" fill="#02DD5A"/>
<path d="M22.5497 51.2891L2.89531 52.2123C3.02724 54.9624 3.40056 57.6874 4.0027 60.3573L23.1924 56.0361C22.8409 54.4804 22.6277 52.8926 22.5497 51.2891Z" fill="black"/>
<defs>
<radialGradient id="paint0_radial" cx="0" cy="0" r="1" gradientUnits="userSpaceOnUse" gradientTransform="translate(50 50) rotate(-62.6894) scale(47.151)">
<stop stop-color="#EC008C"/>
<stop offset="1" stop-color="#FC6767"/>
</radialGradient>
</defs>
</svg>
